<?xml version="1.0" encoding="UTF-8" standalone="no"?>
<!DOCTYPE svg PUBLIC "-//W3C//DTD SVG 1.1//EN"
 "http://www.w3.org/Graphics/SVG/1.1/DTD/svg11.dtd">
<!-- Generated by graphviz version 2.47.0 (20210316.0004)
 -->
<!-- Title: dependencies Pages: 1 -->
<svg width="504pt" height="211pt"
 viewBox="0.00 0.00 504.00 211.00" xmlns="http://www.w3.org/2000/svg" xmlns:xlink="http://www.w3.org/1999/xlink">
<g id="graph0" class="graph" transform="scale(1 1) rotate(0) translate(4 207)">
<title>dependencies</title>
<polygon fill="white" stroke="transparent" points="-4,4 -4,-207 500,-207 500,4 -4,4"/>
<text text-anchor="start" x="227.01" y="-42.4" font-family="Times-12" font-weight="bold" font-size="14.00">Legend</text>
<polygon fill="#ffffb3" stroke="transparent" points="14,-10 14,-30 34,-30 34,-10 14,-10"/>
<text text-anchor="start" x="37.63" y="-15.4" font-family="Times-12" font-size="14.00"> &#160;Declarations</text>
<polygon fill="#8dd3c7" stroke="transparent" points="127,-10 127,-30 147,-30 147,-10 127,-10"/>
<text text-anchor="start" x="150.73" y="-15.4" font-family="Times-12" font-size="14.00"> &#160;Module</text>
<polygon fill="#80b1d3" stroke="transparent" points="213,-10 213,-30 233,-30 233,-10 213,-10"/>
<text text-anchor="start" x="236.78" y="-15.4" font-family="Times-12" font-size="14.00"> &#160;Bootstrap</text>
<polygon fill="#fdb462" stroke="transparent" points="310,-10 310,-30 330,-30 330,-10 310,-10"/>
<text text-anchor="start" x="333.67" y="-15.4" font-family="Times-12" font-size="14.00"> &#160;Providers</text>
<polygon fill="#fb8072" stroke="transparent" points="406,-10 406,-30 426,-30 426,-10 406,-10"/>
<text text-anchor="start" x="429.73" y="-15.4" font-family="Times-12" font-size="14.00"> &#160;Exports</text>
<g id="clust1" class="cluster">
<title>cluster_CenterModule</title>
<polygon fill="none" stroke="black" stroke-dasharray="1,5" points="86,-70 86,-195 410,-195 410,-70 86,-70"/>
</g>
<g id="clust3" class="cluster">
<title>cluster_CenterModule_imports</title>
<polygon fill="none" stroke="black" points="250,-78 250,-130 402,-130 402,-78 250,-78"/>
</g>
<g id="clust6" class="cluster">
<title>cluster_CenterModule_providers</title>
<polygon fill="none" stroke="black" points="94,-78 94,-130 242,-130 242,-78 94,-78"/>
</g>
<!-- ConfigCenterModule -->
<g id="node1" class="node">
<title>ConfigCenterModule</title>
<polygon fill="#8dd3c7" stroke="black" points="393.75,-122 390.75,-126 369.75,-126 366.75,-122 258.25,-122 258.25,-86 393.75,-86 393.75,-122"/>
<text text-anchor="middle" x="326" y="-99.8" font-family="Times,serif" font-size="14.00">ConfigCenterModule</text>
</g>
<!-- CenterModule -->
<g id="node2" class="node">
<title>CenterModule</title>
<polygon fill="#8dd3c7" stroke="black" points="295.37,-187 292.37,-191 271.37,-191 268.37,-187 198.63,-187 198.63,-151 295.37,-151 295.37,-187"/>
<text text-anchor="middle" x="247" y="-164.8" font-family="Times,serif" font-size="14.00">CenterModule</text>
</g>
<!-- ConfigCenterModule&#45;&gt;CenterModule -->
<g id="edge1" class="edge">
<title>ConfigCenterModule&#45;&gt;CenterModule</title>
<path fill="none" stroke="black" d="M276.78,-122.11C276.78,-122.11 276.78,-140.99 276.78,-140.99"/>
<polygon fill="black" stroke="black" points="273.28,-140.99 276.78,-150.99 280.28,-140.99 273.28,-140.99"/>
</g>
<!-- CenterService -->
<g id="node3" class="node">
<title>CenterService</title>
<ellipse fill="#fdb462" stroke="black" cx="168" cy="-104" rx="65.97" ry="18"/>
<text text-anchor="middle" x="168" y="-99.8" font-family="Times,serif" font-size="14.00">CenterService</text>
</g>
<!-- CenterService&#45;&gt;CenterModule -->
<g id="edge2" class="edge">
<title>CenterService&#45;&gt;CenterModule</title>
<path fill="none" stroke="black" d="M216.15,-116.53C216.15,-116.53 216.15,-140.85 216.15,-140.85"/>
<polygon fill="black" stroke="black" points="212.65,-140.85 216.15,-150.85 219.65,-140.85 212.65,-140.85"/>
</g>
</g>
</svg>
