<?xml version="1.0" encoding="UTF-8" standalone="no"?>
<!DOCTYPE svg PUBLIC "-//W3C//DTD SVG 1.1//EN"
 "http://www.w3.org/Graphics/SVG/1.1/DTD/svg11.dtd">
<!-- Generated by graphviz version 2.47.0 (20210316.0004)
 -->
<!-- Title: dependencies Pages: 1 -->
<svg width="504pt" height="211pt"
 viewBox="0.00 0.00 504.00 211.00" xmlns="http://www.w3.org/2000/svg" xmlns:xlink="http://www.w3.org/1999/xlink">
<g id="graph0" class="graph" transform="scale(1 1) rotate(0) translate(4 207)">
<title>dependencies</title>
<polygon fill="white" stroke="transparent" points="-4,4 -4,-207 500,-207 500,4 -4,4"/>
<text text-anchor="start" x="227.01" y="-42.4" font-family="Times-12" font-weight="bold" font-size="14.00">Legend</text>
<polygon fill="#ffffb3" stroke="transparent" points="14,-10 14,-30 34,-30 34,-10 14,-10"/>
<text text-anchor="start" x="37.63" y="-15.4" font-family="Times-12" font-size="14.00"> &#160;Declarations</text>
<polygon fill="#8dd3c7" stroke="transparent" points="127,-10 127,-30 147,-30 147,-10 127,-10"/>
<text text-anchor="start" x="150.73" y="-15.4" font-family="Times-12" font-size="14.00"> &#160;Module</text>
<polygon fill="#80b1d3" stroke="transparent" points="213,-10 213,-30 233,-30 233,-10 213,-10"/>
<text text-anchor="start" x="236.78" y="-15.4" font-family="Times-12" font-size="14.00"> &#160;Bootstrap</text>
<polygon fill="#fdb462" stroke="transparent" points="310,-10 310,-30 330,-30 330,-10 310,-10"/>
<text text-anchor="start" x="333.67" y="-15.4" font-family="Times-12" font-size="14.00"> &#160;Providers</text>
<polygon fill="#fb8072" stroke="transparent" points="406,-10 406,-30 426,-30 426,-10 406,-10"/>
<text text-anchor="start" x="429.73" y="-15.4" font-family="Times-12" font-size="14.00"> &#160;Exports</text>
<g id="clust1" class="cluster">
<title>cluster_UserModule</title>
<polygon fill="none" stroke="black" stroke-dasharray="1,5" points="23,-70 23,-195 473,-195 473,-70 23,-70"/>
</g>
<g id="clust6" class="cluster">
<title>cluster_UserModule_providers</title>
<polygon fill="none" stroke="black" points="31,-78 31,-130 465,-130 465,-78 31,-78"/>
</g>
<!-- AddNewUser -->
<g id="node1" class="node">
<title>AddNewUser</title>
<ellipse fill="#fdb462" stroke="black" cx="393" cy="-104" rx="64.25" ry="18"/>
<text text-anchor="middle" x="393" y="-99.8" font-family="Times,serif" font-size="14.00">AddNewUser</text>
</g>
<!-- UserModule -->
<g id="node4" class="node">
<title>UserModule</title>
<polygon fill="#8dd3c7" stroke="black" points="284.98,-187 281.98,-191 260.98,-191 257.98,-187 199.02,-187 199.02,-151 284.98,-151 284.98,-187"/>
<text text-anchor="middle" x="242" y="-164.8" font-family="Times,serif" font-size="14.00">UserModule</text>
</g>
<!-- AddNewUser&#45;&gt;UserModule -->
<g id="edge1" class="edge">
<title>AddNewUser&#45;&gt;UserModule</title>
<path fill="none" stroke="black" d="M393,-122.11C393,-141.34 393,-169 393,-169 393,-169 295.27,-169 295.27,-169"/>
<polygon fill="black" stroke="black" points="295.27,-165.5 285.27,-169 295.27,-172.5 295.27,-165.5"/>
</g>
<!-- AddUserBatch -->
<g id="node2" class="node">
<title>AddUserBatch</title>
<ellipse fill="#fdb462" stroke="black" cx="242" cy="-104" rx="68.34" ry="18"/>
<text text-anchor="middle" x="242" y="-99.8" font-family="Times,serif" font-size="14.00">AddUserBatch</text>
</g>
<!-- AddUserBatch&#45;&gt;UserModule -->
<g id="edge2" class="edge">
<title>AddUserBatch&#45;&gt;UserModule</title>
<path fill="none" stroke="black" d="M242,-122.11C242,-122.11 242,-140.99 242,-140.99"/>
<polygon fill="black" stroke="black" points="238.5,-140.99 242,-150.99 245.5,-140.99 238.5,-140.99"/>
</g>
<!-- UserService -->
<g id="node3" class="node">
<title>UserService</title>
<ellipse fill="#fdb462" stroke="black" cx="97" cy="-104" rx="58.44" ry="18"/>
<text text-anchor="middle" x="97" y="-99.8" font-family="Times,serif" font-size="14.00">UserService</text>
</g>
<!-- UserService&#45;&gt;UserModule -->
<g id="edge3" class="edge">
<title>UserService&#45;&gt;UserModule</title>
<path fill="none" stroke="black" d="M97,-122.11C97,-141.34 97,-169 97,-169 97,-169 188.89,-169 188.89,-169"/>
<polygon fill="black" stroke="black" points="188.89,-172.5 198.89,-169 188.89,-165.5 188.89,-172.5"/>
</g>
</g>
</svg>
