<?xml version="1.0" encoding="UTF-8" standalone="no"?>
<!DOCTYPE svg PUBLIC "-//W3C//DTD SVG 1.1//EN"
 "http://www.w3.org/Graphics/SVG/1.1/DTD/svg11.dtd">
<!-- Generated by graphviz version 2.47.0 (20210316.0004)
 -->
<!-- Title: dependencies Pages: 1 -->
<svg width="1109pt" height="211pt"
 viewBox="0.00 0.00 1109.00 211.00" xmlns="http://www.w3.org/2000/svg" xmlns:xlink="http://www.w3.org/1999/xlink">
<g id="graph0" class="graph" transform="scale(1 1) rotate(0) translate(4 207)">
<title>dependencies</title>
<polygon fill="white" stroke="transparent" points="-4,4 -4,-207 1105,-207 1105,4 -4,4"/>
<text text-anchor="start" x="529.51" y="-42.4" font-family="Times-12" font-weight="bold" font-size="14.00">Legend</text>
<polygon fill="#ffffb3" stroke="transparent" points="316.5,-10 316.5,-30 336.5,-30 336.5,-10 316.5,-10"/>
<text text-anchor="start" x="340.13" y="-15.4" font-family="Times-12" font-size="14.00"> &#160;Declarations</text>
<polygon fill="#8dd3c7" stroke="transparent" points="429.5,-10 429.5,-30 449.5,-30 449.5,-10 429.5,-10"/>
<text text-anchor="start" x="453.23" y="-15.4" font-family="Times-12" font-size="14.00"> &#160;Module</text>
<polygon fill="#80b1d3" stroke="transparent" points="515.5,-10 515.5,-30 535.5,-30 535.5,-10 515.5,-10"/>
<text text-anchor="start" x="539.28" y="-15.4" font-family="Times-12" font-size="14.00"> &#160;Bootstrap</text>
<polygon fill="#fdb462" stroke="transparent" points="612.5,-10 612.5,-30 632.5,-30 632.5,-10 612.5,-10"/>
<text text-anchor="start" x="636.17" y="-15.4" font-family="Times-12" font-size="14.00"> &#160;Providers</text>
<polygon fill="#fb8072" stroke="transparent" points="708.5,-10 708.5,-30 728.5,-30 728.5,-10 708.5,-10"/>
<text text-anchor="start" x="732.23" y="-15.4" font-family="Times-12" font-size="14.00"> &#160;Exports</text>
<g id="clust1" class="cluster">
<title>cluster_AppModule</title>
<polygon fill="none" stroke="black" stroke-dasharray="1,5" points="8,-70 8,-195 1093,-195 1093,-70 8,-70"/>
</g>
<g id="clust3" class="cluster">
<title>cluster_AppModule_imports</title>
<polygon fill="none" stroke="black" points="154,-78 154,-130 1085,-130 1085,-78 154,-78"/>
</g>
<g id="clust6" class="cluster">
<title>cluster_AppModule_providers</title>
<polygon fill="none" stroke="black" points="16,-78 16,-130 146,-130 146,-78 16,-78"/>
</g>
<!-- CenterModule -->
<g id="node1" class="node">
<title>CenterModule</title>
<polygon fill="#8dd3c7" stroke="black" points="1077.37,-122 1074.37,-126 1053.37,-126 1050.37,-122 980.63,-122 980.63,-86 1077.37,-86 1077.37,-122"/>
<text text-anchor="middle" x="1029" y="-99.8" font-family="Times,serif" font-size="14.00">CenterModule</text>
</g>
<!-- AppModule -->
<g id="node8" class="node">
<title>AppModule</title>
<polygon fill="#8dd3c7" stroke="black" points="567.66,-187 564.66,-191 543.66,-191 540.66,-187 484.34,-187 484.34,-151 567.66,-151 567.66,-187"/>
<text text-anchor="middle" x="526" y="-164.8" font-family="Times,serif" font-size="14.00">AppModule</text>
</g>
<!-- CenterModule&#45;&gt;AppModule -->
<g id="edge1" class="edge">
<title>CenterModule&#45;&gt;AppModule</title>
<path fill="none" stroke="black" d="M1029,-122.29C1029,-144.21 1029,-178 1029,-178 1029,-178 578.02,-178 578.02,-178"/>
<polygon fill="black" stroke="black" points="578.02,-174.5 568.02,-178 578.02,-181.5 578.02,-174.5"/>
</g>
<!-- ConfigCenterModule -->
<g id="node2" class="node">
<title>ConfigCenterModule</title>
<polygon fill="#8dd3c7" stroke="black" points="962.75,-122 959.75,-126 938.75,-126 935.75,-122 827.25,-122 827.25,-86 962.75,-86 962.75,-122"/>
<text text-anchor="middle" x="895" y="-99.8" font-family="Times,serif" font-size="14.00">ConfigCenterModule</text>
</g>
<!-- ConfigCenterModule&#45;&gt;AppModule -->
<g id="edge2" class="edge">
<title>ConfigCenterModule&#45;&gt;AppModule</title>
<path fill="none" stroke="black" d="M895,-122.11C895,-141.34 895,-169 895,-169 895,-169 577.97,-169 577.97,-169"/>
<polygon fill="black" stroke="black" points="577.97,-165.5 567.97,-169 577.97,-172.5 577.97,-165.5"/>
</g>
<!-- DrizzleModule -->
<g id="node3" class="node">
<title>DrizzleModule</title>
<polygon fill="#8dd3c7" stroke="black" points="809.24,-122 806.24,-126 785.24,-126 782.24,-122 708.76,-122 708.76,-86 809.24,-86 809.24,-122"/>
<text text-anchor="middle" x="759" y="-99.8" font-family="Times,serif" font-size="14.00">DrizzleModule</text>
</g>
<!-- DrizzleModule&#45;&gt;AppModule -->
<g id="edge3" class="edge">
<title>DrizzleModule&#45;&gt;AppModule</title>
<path fill="none" stroke="black" d="M759,-122.03C759,-138.4 759,-160 759,-160 759,-160 577.92,-160 577.92,-160"/>
<polygon fill="black" stroke="black" points="577.92,-156.5 567.92,-160 577.92,-163.5 577.92,-156.5"/>
</g>
<!-- GestaoProdutividadeModule -->
<g id="node4" class="node">
<title>GestaoProdutividadeModule</title>
<polygon fill="#8dd3c7" stroke="black" points="690.47,-122 687.47,-126 666.47,-126 663.47,-122 513.53,-122 513.53,-86 690.47,-86 690.47,-122"/>
<text text-anchor="middle" x="602" y="-99.8" font-family="Times,serif" font-size="14.00">GestaoProdutividadeModule</text>
</g>
<!-- GestaoProdutividadeModule&#45;&gt;AppModule -->
<g id="edge4" class="edge">
<title>GestaoProdutividadeModule&#45;&gt;AppModule</title>
<path fill="none" stroke="black" d="M540.67,-122.11C540.67,-122.11 540.67,-140.99 540.67,-140.99"/>
<polygon fill="black" stroke="black" points="537.17,-140.99 540.67,-150.99 544.17,-140.99 537.17,-140.99"/>
</g>
<!-- RedisModule -->
<g id="node5" class="node">
<title>RedisModule</title>
<polygon fill="#8dd3c7" stroke="black" points="495.94,-122 492.94,-126 471.94,-126 468.94,-122 404.06,-122 404.06,-86 495.94,-86 495.94,-122"/>
<text text-anchor="middle" x="450" y="-99.8" font-family="Times,serif" font-size="14.00">RedisModule</text>
</g>
<!-- RedisModule&#45;&gt;AppModule -->
<g id="edge5" class="edge">
<title>RedisModule&#45;&gt;AppModule</title>
<path fill="none" stroke="black" d="M489.94,-122.11C489.94,-122.11 489.94,-140.99 489.94,-140.99"/>
<polygon fill="black" stroke="black" points="486.45,-140.99 489.94,-150.99 493.45,-140.99 486.45,-140.99"/>
</g>
<!-- TransporteModule -->
<g id="node6" class="node">
<title>TransporteModule</title>
<polygon fill="#8dd3c7" stroke="black" points="386.19,-122 383.19,-126 362.19,-126 359.19,-122 265.81,-122 265.81,-86 386.19,-86 386.19,-122"/>
<text text-anchor="middle" x="326" y="-99.8" font-family="Times,serif" font-size="14.00">TransporteModule</text>
</g>
<!-- TransporteModule&#45;&gt;AppModule -->
<g id="edge6" class="edge">
<title>TransporteModule&#45;&gt;AppModule</title>
<path fill="none" stroke="black" d="M326,-122.03C326,-138.4 326,-160 326,-160 326,-160 474.07,-160 474.07,-160"/>
<polygon fill="black" stroke="black" points="474.07,-163.5 484.07,-160 474.07,-156.5 474.07,-163.5"/>
</g>
<!-- UserModule -->
<g id="node7" class="node">
<title>UserModule</title>
<polygon fill="#8dd3c7" stroke="black" points="247.98,-122 244.98,-126 223.98,-126 220.98,-122 162.02,-122 162.02,-86 247.98,-86 247.98,-122"/>
<text text-anchor="middle" x="205" y="-99.8" font-family="Times,serif" font-size="14.00">UserModule</text>
</g>
<!-- UserModule&#45;&gt;AppModule -->
<g id="edge7" class="edge">
<title>UserModule&#45;&gt;AppModule</title>
<path fill="none" stroke="black" d="M205,-122.11C205,-141.34 205,-169 205,-169 205,-169 474.03,-169 474.03,-169"/>
<polygon fill="black" stroke="black" points="474.03,-172.5 484.03,-169 474.03,-165.5 474.03,-172.5"/>
</g>
<!-- AppService -->
<g id="node9" class="node">
<title>AppService</title>
<ellipse fill="#fdb462" stroke="black" cx="81" cy="-104" rx="56.74" ry="18"/>
<text text-anchor="middle" x="81" y="-99.8" font-family="Times,serif" font-size="14.00">AppService</text>
</g>
<!-- AppService&#45;&gt;AppModule -->
<g id="edge8" class="edge">
<title>AppService&#45;&gt;AppModule</title>
<path fill="none" stroke="black" d="M81,-122.29C81,-144.21 81,-178 81,-178 81,-178 474.14,-178 474.14,-178"/>
<polygon fill="black" stroke="black" points="474.14,-181.5 484.14,-178 474.14,-174.5 474.14,-181.5"/>
</g>
</g>
</svg>
