<?xml version="1.0" encoding="UTF-8" standalone="no"?>
<!DOCTYPE svg PUBLIC "-//W3C//DTD SVG 1.1//EN"
 "http://www.w3.org/Graphics/SVG/1.1/DTD/svg11.dtd">
<!-- Generated by graphviz version 2.47.0 (20210316.0004)
 -->
<!-- Title: dependencies Pages: 1 -->
<svg width="560pt" height="211pt"
 viewBox="0.00 0.00 560.00 211.00" xmlns="http://www.w3.org/2000/svg" xmlns:xlink="http://www.w3.org/1999/xlink">
<g id="graph0" class="graph" transform="scale(1 1) rotate(0) translate(4 207)">
<title>dependencies</title>
<polygon fill="white" stroke="transparent" points="-4,4 -4,-207 556,-207 556,4 -4,4"/>
<text text-anchor="start" x="255.01" y="-42.4" font-family="Times-12" font-weight="bold" font-size="14.00">Legend</text>
<polygon fill="#ffffb3" stroke="transparent" points="42,-10 42,-30 62,-30 62,-10 42,-10"/>
<text text-anchor="start" x="65.63" y="-15.4" font-family="Times-12" font-size="14.00"> &#160;Declarations</text>
<polygon fill="#8dd3c7" stroke="transparent" points="155,-10 155,-30 175,-30 175,-10 155,-10"/>
<text text-anchor="start" x="178.73" y="-15.4" font-family="Times-12" font-size="14.00"> &#160;Module</text>
<polygon fill="#80b1d3" stroke="transparent" points="241,-10 241,-30 261,-30 261,-10 241,-10"/>
<text text-anchor="start" x="264.78" y="-15.4" font-family="Times-12" font-size="14.00"> &#160;Bootstrap</text>
<polygon fill="#fdb462" stroke="transparent" points="338,-10 338,-30 358,-30 358,-10 338,-10"/>
<text text-anchor="start" x="361.67" y="-15.4" font-family="Times-12" font-size="14.00"> &#160;Providers</text>
<polygon fill="#fb8072" stroke="transparent" points="434,-10 434,-30 454,-30 454,-10 434,-10"/>
<text text-anchor="start" x="457.73" y="-15.4" font-family="Times-12" font-size="14.00"> &#160;Exports</text>
<g id="clust1" class="cluster">
<title>cluster_GestaoProdutividadeModule</title>
<polygon fill="none" stroke="black" stroke-dasharray="1,5" points="8,-70 8,-195 544,-195 544,-70 8,-70"/>
</g>
<g id="clust6" class="cluster">
<title>cluster_GestaoProdutividadeModule_providers</title>
<polygon fill="none" stroke="black" points="16,-78 16,-130 536,-130 536,-78 16,-78"/>
</g>
<!-- CriarDemandaProdutividade -->
<g id="node1" class="node">
<title>CriarDemandaProdutividade</title>
<ellipse fill="#fdb462" stroke="black" cx="406" cy="-104" rx="122.11" ry="18"/>
<text text-anchor="middle" x="406" y="-99.8" font-family="Times,serif" font-size="14.00">CriarDemandaProdutividade</text>
</g>
<!-- GestaoProdutividadeModule -->
<g id="node3" class="node">
<title>GestaoProdutividadeModule</title>
<polygon fill="#8dd3c7" stroke="black" points="363.47,-187 360.47,-191 339.47,-191 336.47,-187 186.53,-187 186.53,-151 363.47,-151 363.47,-187"/>
<text text-anchor="middle" x="275" y="-164.8" font-family="Times,serif" font-size="14.00">GestaoProdutividadeModule</text>
</g>
<!-- CriarDemandaProdutividade&#45;&gt;GestaoProdutividadeModule -->
<g id="edge1" class="edge">
<title>CriarDemandaProdutividade&#45;&gt;GestaoProdutividadeModule</title>
<path fill="none" stroke="black" d="M323.71,-117.47C323.71,-117.47 323.71,-140.86 323.71,-140.86"/>
<polygon fill="black" stroke="black" points="320.21,-140.86 323.71,-150.86 327.21,-140.86 320.21,-140.86"/>
</g>
<!-- GestaoProdutividadeService -->
<g id="node2" class="node">
<title>GestaoProdutividadeService</title>
<ellipse fill="#fdb462" stroke="black" cx="145" cy="-104" rx="120.97" ry="18"/>
<text text-anchor="middle" x="145" y="-99.8" font-family="Times,serif" font-size="14.00">GestaoProdutividadeService</text>
</g>
<!-- GestaoProdutividadeService&#45;&gt;GestaoProdutividadeModule -->
<g id="edge2" class="edge">
<title>GestaoProdutividadeService&#45;&gt;GestaoProdutividadeModule</title>
<path fill="none" stroke="black" d="M226.25,-117.47C226.25,-117.47 226.25,-140.86 226.25,-140.86"/>
<polygon fill="black" stroke="black" points="222.75,-140.86 226.25,-150.86 229.75,-140.86 222.75,-140.86"/>
</g>
</g>
</svg>
