<?xml version="1.0" encoding="UTF-8" standalone="no"?>
<!DOCTYPE svg PUBLIC "-//W3C//DTD SVG 1.1//EN"
 "http://www.w3.org/Graphics/SVG/1.1/DTD/svg11.dtd">
<!-- Generated by graphviz version 2.47.0 (20210316.0004)
 -->
<!-- Title: dependencies Pages: 1 -->
<svg width="1838pt" height="363pt"
 viewBox="0.00 0.00 1838.00 363.00" xmlns="http://www.w3.org/2000/svg" xmlns:xlink="http://www.w3.org/1999/xlink">
<g id="graph0" class="graph" transform="scale(1 1) rotate(0) translate(4 359)">
<title>dependencies</title>
<polygon fill="white" stroke="transparent" points="-4,4 -4,-359 1834,-359 1834,4 -4,4"/>
<text text-anchor="start" x="894.01" y="-42.4" font-family="Times-12" font-weight="bold" font-size="14.00">Legend</text>
<polygon fill="#ffffb3" stroke="transparent" points="681,-10 681,-30 701,-30 701,-10 681,-10"/>
<text text-anchor="start" x="704.63" y="-15.4" font-family="Times-12" font-size="14.00"> &#160;Declarations</text>
<polygon fill="#8dd3c7" stroke="transparent" points="794,-10 794,-30 814,-30 814,-10 794,-10"/>
<text text-anchor="start" x="817.73" y="-15.4" font-family="Times-12" font-size="14.00"> &#160;Module</text>
<polygon fill="#80b1d3" stroke="transparent" points="880,-10 880,-30 900,-30 900,-10 880,-10"/>
<text text-anchor="start" x="903.78" y="-15.4" font-family="Times-12" font-size="14.00"> &#160;Bootstrap</text>
<polygon fill="#fdb462" stroke="transparent" points="977,-10 977,-30 997,-30 997,-10 977,-10"/>
<text text-anchor="start" x="1000.67" y="-15.4" font-family="Times-12" font-size="14.00"> &#160;Providers</text>
<polygon fill="#fb8072" stroke="transparent" points="1073,-10 1073,-30 1093,-30 1093,-10 1073,-10"/>
<text text-anchor="start" x="1096.73" y="-15.4" font-family="Times-12" font-size="14.00"> &#160;Exports</text>
<g id="clust1" class="cluster">
<title>cluster_AppModule</title>
<polygon fill="none" stroke="black" stroke-dasharray="1,5" points="180,-146 180,-347 1152,-347 1152,-146 180,-146"/>
</g>
<g id="clust3" class="cluster">
<title>cluster_AppModule_imports</title>
<polygon fill="none" stroke="black" points="326,-154 326,-282 1144,-282 1144,-154 326,-154"/>
</g>
<g id="clust6" class="cluster">
<title>cluster_AppModule_providers</title>
<polygon fill="none" stroke="black" points="188,-230 188,-282 318,-282 318,-230 188,-230"/>
</g>
<g id="clust7" class="cluster">
<title>cluster_CenterModule</title>
<polygon fill="none" stroke="black" stroke-dasharray="1,5" points="8,-146 8,-214 172,-214 172,-146 8,-146"/>
</g>
<g id="clust12" class="cluster">
<title>cluster_CenterModule_providers</title>
<polygon fill="none" stroke="black" points="16,-154 16,-206 164,-206 164,-154 16,-154"/>
</g>
<g id="clust13" class="cluster">
<title>cluster_ConfigCenterModule</title>
<polygon fill="none" stroke="black" stroke-dasharray="1,5" points="1160,-222 1160,-290 1540,-290 1540,-222 1160,-222"/>
</g>
<g id="clust16" class="cluster">
<title>cluster_ConfigCenterModule_exports</title>
<polygon fill="none" stroke="black" points="1378,-230 1378,-282 1532,-282 1532,-230 1378,-230"/>
</g>
<g id="clust18" class="cluster">
<title>cluster_ConfigCenterModule_providers</title>
<polygon fill="none" stroke="black" points="1168,-230 1168,-282 1370,-282 1370,-230 1168,-230"/>
</g>
<g id="clust25" class="cluster">
<title>cluster_GestaoProdutividadeModule</title>
<polygon fill="none" stroke="black" stroke-dasharray="1,5" points="37,-70 37,-138 573,-138 573,-70 37,-70"/>
</g>
<g id="clust30" class="cluster">
<title>cluster_GestaoProdutividadeModule_providers</title>
<polygon fill="none" stroke="black" points="45,-78 45,-130 565,-130 565,-78 45,-78"/>
</g>
<g id="clust31" class="cluster">
<title>cluster_RedisModule</title>
<polygon fill="none" stroke="black" stroke-dasharray="1,5" points="1548,-222 1548,-290 1822,-290 1822,-222 1548,-222"/>
</g>
<g id="clust34" class="cluster">
<title>cluster_RedisModule_exports</title>
<polygon fill="none" stroke="black" points="1704,-230 1704,-282 1814,-282 1814,-230 1704,-230"/>
</g>
<g id="clust36" class="cluster">
<title>cluster_RedisModule_providers</title>
<polygon fill="none" stroke="black" points="1556,-230 1556,-282 1696,-282 1696,-230 1556,-230"/>
</g>
<g id="clust37" class="cluster">
<title>cluster_TransporteModule</title>
<polygon fill="none" stroke="black" stroke-dasharray="1,5" points="581,-70 581,-138 777,-138 777,-70 581,-70"/>
</g>
<g id="clust42" class="cluster">
<title>cluster_TransporteModule_providers</title>
<polygon fill="none" stroke="black" points="589,-78 589,-130 769,-130 769,-78 589,-78"/>
</g>
<g id="clust43" class="cluster">
<title>cluster_UserModule</title>
<polygon fill="none" stroke="black" stroke-dasharray="1,5" points="785,-70 785,-138 1235,-138 1235,-70 785,-70"/>
</g>
<g id="clust48" class="cluster">
<title>cluster_UserModule_providers</title>
<polygon fill="none" stroke="black" points="793,-78 793,-130 1227,-130 1227,-78 793,-78"/>
</g>
<!-- CenterModule -->
<g id="node1" class="node">
<title>CenterModule</title>
<polygon fill="#8dd3c7" stroke="black" points="649.37,-274 646.37,-278 625.37,-278 622.37,-274 552.63,-274 552.63,-238 649.37,-238 649.37,-274"/>
<text text-anchor="middle" x="601" y="-251.8" font-family="Times,serif" font-size="14.00">CenterModule</text>
</g>
<!-- AppModule -->
<g id="node8" class="node">
<title>AppModule</title>
<polygon fill="#8dd3c7" stroke="black" points="739.66,-339 736.66,-343 715.66,-343 712.66,-339 656.34,-339 656.34,-303 739.66,-303 739.66,-339"/>
<text text-anchor="middle" x="698" y="-316.8" font-family="Times,serif" font-size="14.00">AppModule</text>
</g>
<!-- CenterModule&#45;&gt;AppModule -->
<g id="edge1" class="edge">
<title>CenterModule&#45;&gt;AppModule</title>
<path fill="none" stroke="black" d="M649.8,-265C667.87,-265 684.06,-265 684.06,-265 684.06,-265 684.06,-292.97 684.06,-292.97"/>
<polygon fill="black" stroke="black" points="680.56,-292.97 684.06,-302.97 687.56,-292.97 680.56,-292.97"/>
</g>
<!-- ConfigCenterModule -->
<g id="node2" class="node">
<title>ConfigCenterModule</title>
<polygon fill="#8dd3c7" stroke="black" points="1025.75,-198 1022.75,-202 1001.75,-202 998.75,-198 890.25,-198 890.25,-162 1025.75,-162 1025.75,-198"/>
<text text-anchor="middle" x="958" y="-175.8" font-family="Times,serif" font-size="14.00">ConfigCenterModule</text>
</g>
<!-- ConfigCenterModule&#45;&gt;CenterModule -->
<g id="edge9" class="edge">
<title>ConfigCenterModule&#45;&gt;CenterModule</title>
<path fill="none" stroke="black" d="M944.42,-198.31C944.42,-218.15 944.42,-247 944.42,-247 944.42,-247 659.48,-247 659.48,-247"/>
<polygon fill="black" stroke="black" points="659.48,-243.5 649.48,-247 659.48,-250.5 659.48,-243.5"/>
</g>
<!-- ConfigCenterModule&#45;&gt;AppModule -->
<g id="edge2" class="edge">
<title>ConfigCenterModule&#45;&gt;AppModule</title>
<path fill="none" stroke="black" d="M971.58,-198.14C971.58,-236.23 971.58,-321 971.58,-321 971.58,-321 749.85,-321 749.85,-321"/>
<polygon fill="black" stroke="black" points="749.85,-317.5 739.85,-321 749.85,-324.5 749.85,-317.5"/>
</g>
<!-- ConfigCenterService  -->
<g id="node11" class="node">
<title>ConfigCenterService </title>
<polygon fill="#fb8072" stroke="black" points="1523.68,-274 1386.32,-274 1386.32,-238 1523.68,-238 1523.68,-274"/>
<text text-anchor="middle" x="1455" y="-251.8" font-family="Times,serif" font-size="14.00">ConfigCenterService </text>
</g>
<!-- ConfigCenterModule&#45;&gt;ConfigCenterService  -->
<g id="edge11" class="edge">
<title>ConfigCenterModule&#45;&gt;ConfigCenterService </title>
<path fill="none" stroke="black" stroke-dasharray="5,2" d="M917.27,-198.11C917.27,-207.9 917.27,-218 917.27,-218 917.27,-218 1455,-218 1455,-218 1455,-218 1455,-227.89 1455,-227.89"/>
<polygon fill="black" stroke="black" points="1451.5,-227.89 1455,-237.89 1458.5,-227.89 1451.5,-227.89"/>
</g>
<!-- DrizzleModule -->
<g id="node3" class="node">
<title>DrizzleModule</title>
<polygon fill="#8dd3c7" stroke="black" points="434.24,-198 431.24,-202 410.24,-202 407.24,-198 333.76,-198 333.76,-162 434.24,-162 434.24,-198"/>
<text text-anchor="middle" x="384" y="-175.8" font-family="Times,serif" font-size="14.00">DrizzleModule</text>
</g>
<!-- DrizzleModule&#45;&gt;AppModule -->
<g id="edge3" class="edge">
<title>DrizzleModule&#45;&gt;AppModule</title>
<path fill="none" stroke="black" d="M384,-198.14C384,-236.23 384,-321 384,-321 384,-321 646.3,-321 646.3,-321"/>
<polygon fill="black" stroke="black" points="646.3,-324.5 656.3,-321 646.3,-317.5 646.3,-324.5"/>
</g>
<!-- GestaoProdutividadeModule -->
<g id="node4" class="node">
<title>GestaoProdutividadeModule</title>
<polygon fill="#8dd3c7" stroke="black" points="629.47,-198 626.47,-202 605.47,-202 602.47,-198 452.53,-198 452.53,-162 629.47,-162 629.47,-198"/>
<text text-anchor="middle" x="541" y="-175.8" font-family="Times,serif" font-size="14.00">GestaoProdutividadeModule</text>
</g>
<!-- GestaoProdutividadeModule&#45;&gt;AppModule -->
<g id="edge4" class="edge">
<title>GestaoProdutividadeModule&#45;&gt;AppModule</title>
<path fill="none" stroke="black" d="M502.54,-198.08C502.54,-234.23 502.54,-312 502.54,-312 502.54,-312 646.07,-312 646.07,-312"/>
<polygon fill="black" stroke="black" points="646.07,-315.5 656.07,-312 646.07,-308.5 646.07,-315.5"/>
</g>
<!-- RedisModule -->
<g id="node5" class="node">
<title>RedisModule</title>
<polygon fill="#8dd3c7" stroke="black" points="1135.94,-198 1132.94,-202 1111.94,-202 1108.94,-198 1044.06,-198 1044.06,-162 1135.94,-162 1135.94,-198"/>
<text text-anchor="middle" x="1090" y="-175.8" font-family="Times,serif" font-size="14.00">RedisModule</text>
</g>
<!-- RedisModule&#45;&gt;AppModule -->
<g id="edge5" class="edge">
<title>RedisModule&#45;&gt;AppModule</title>
<path fill="none" stroke="black" d="M1090,-198.09C1090,-237.99 1090,-330 1090,-330 1090,-330 749.95,-330 749.95,-330"/>
<polygon fill="black" stroke="black" points="749.95,-326.5 739.95,-330 749.95,-333.5 749.95,-326.5"/>
</g>
<!-- RedisService  -->
<g id="node15" class="node">
<title>RedisService </title>
<polygon fill="#fb8072" stroke="black" points="1805.86,-274 1712.14,-274 1712.14,-238 1805.86,-238 1805.86,-274"/>
<text text-anchor="middle" x="1759" y="-251.8" font-family="Times,serif" font-size="14.00">RedisService </text>
</g>
<!-- RedisModule&#45;&gt;RedisService  -->
<g id="edge15" class="edge">
<title>RedisModule&#45;&gt;RedisService </title>
<path fill="none" stroke="black" stroke-dasharray="5,2" d="M1135.72,-174C1286.58,-174 1759,-174 1759,-174 1759,-174 1759,-227.8 1759,-227.8"/>
<polygon fill="black" stroke="black" points="1755.5,-227.8 1759,-237.8 1762.5,-227.8 1755.5,-227.8"/>
</g>
<!-- TransporteModule -->
<g id="node6" class="node">
<title>TransporteModule</title>
<polygon fill="#8dd3c7" stroke="black" points="768.19,-198 765.19,-202 744.19,-202 741.19,-198 647.81,-198 647.81,-162 768.19,-162 768.19,-198"/>
<text text-anchor="middle" x="708" y="-175.8" font-family="Times,serif" font-size="14.00">TransporteModule</text>
</g>
<!-- TransporteModule&#45;&gt;AppModule -->
<g id="edge6" class="edge">
<title>TransporteModule&#45;&gt;AppModule</title>
<path fill="none" stroke="black" d="M711.94,-198.14C711.94,-198.14 711.94,-292.93 711.94,-292.93"/>
<polygon fill="black" stroke="black" points="708.44,-292.92 711.94,-302.93 715.44,-292.93 708.44,-292.92"/>
</g>
<!-- UserModule -->
<g id="node7" class="node">
<title>UserModule</title>
<polygon fill="#8dd3c7" stroke="black" points="871.98,-198 868.98,-202 847.98,-202 844.98,-198 786.02,-198 786.02,-162 871.98,-162 871.98,-198"/>
<text text-anchor="middle" x="829" y="-175.8" font-family="Times,serif" font-size="14.00">UserModule</text>
</g>
<!-- UserModule&#45;&gt;AppModule -->
<g id="edge7" class="edge">
<title>UserModule&#45;&gt;AppModule</title>
<path fill="none" stroke="black" d="M829,-198.08C829,-234.23 829,-312 829,-312 829,-312 749.81,-312 749.81,-312"/>
<polygon fill="black" stroke="black" points="749.81,-308.5 739.81,-312 749.81,-315.5 749.81,-308.5"/>
</g>
<!-- AppService -->
<g id="node9" class="node">
<title>AppService</title>
<ellipse fill="#fdb462" stroke="black" cx="253" cy="-256" rx="56.74" ry="18"/>
<text text-anchor="middle" x="253" y="-251.8" font-family="Times,serif" font-size="14.00">AppService</text>
</g>
<!-- AppService&#45;&gt;AppModule -->
<g id="edge8" class="edge">
<title>AppService&#45;&gt;AppModule</title>
<path fill="none" stroke="black" d="M253,-274.29C253,-296.21 253,-330 253,-330 253,-330 646.14,-330 646.14,-330"/>
<polygon fill="black" stroke="black" points="646.14,-333.5 656.14,-330 646.14,-326.5 646.14,-333.5"/>
</g>
<!-- CenterService -->
<g id="node10" class="node">
<title>CenterService</title>
<ellipse fill="#fdb462" stroke="black" cx="90" cy="-180" rx="65.97" ry="18"/>
<text text-anchor="middle" x="90" y="-175.8" font-family="Times,serif" font-size="14.00">CenterService</text>
</g>
<!-- CenterService&#45;&gt;CenterModule -->
<g id="edge10" class="edge">
<title>CenterService&#45;&gt;CenterModule</title>
<path fill="none" stroke="black" d="M155.92,-180C224.9,-180 323.29,-180 323.29,-180 323.29,-180 323.29,-256 323.29,-256 323.29,-256 542.63,-256 542.63,-256"/>
<polygon fill="black" stroke="black" points="542.63,-259.5 552.63,-256 542.63,-252.5 542.63,-259.5"/>
</g>
<!-- ConfigCenterService -->
<g id="node12" class="node">
<title>ConfigCenterService</title>
<ellipse fill="#fdb462" stroke="black" cx="1269" cy="-256" rx="92.61" ry="18"/>
<text text-anchor="middle" x="1269" y="-251.8" font-family="Times,serif" font-size="14.00">ConfigCenterService</text>
</g>
<!-- ConfigCenterService&#45;&gt;ConfigCenterModule -->
<g id="edge12" class="edge">
<title>ConfigCenterService&#45;&gt;ConfigCenterModule</title>
<path fill="none" stroke="black" d="M1176.37,-256C1098.13,-256 998.73,-256 998.73,-256 998.73,-256 998.73,-208.01 998.73,-208.01"/>
<polygon fill="black" stroke="black" points="1002.23,-208.01 998.73,-198.01 995.23,-208.01 1002.23,-208.01"/>
</g>
<!-- CriarDemandaProdutividade -->
<g id="node13" class="node">
<title>CriarDemandaProdutividade</title>
<ellipse fill="#fdb462" stroke="black" cx="435" cy="-104" rx="122.11" ry="18"/>
<text text-anchor="middle" x="435" y="-99.8" font-family="Times,serif" font-size="14.00">CriarDemandaProdutividade</text>
</g>
<!-- CriarDemandaProdutividade&#45;&gt;GestaoProdutividadeModule -->
<g id="edge13" class="edge">
<title>CriarDemandaProdutividade&#45;&gt;GestaoProdutividadeModule</title>
<path fill="none" stroke="black" d="M522.21,-116.89C522.21,-116.89 522.21,-151.91 522.21,-151.91"/>
<polygon fill="black" stroke="black" points="518.71,-151.91 522.21,-161.91 525.71,-151.91 518.71,-151.91"/>
</g>
<!-- GestaoProdutividadeService -->
<g id="node14" class="node">
<title>GestaoProdutividadeService</title>
<ellipse fill="#fdb462" stroke="black" cx="174" cy="-104" rx="120.97" ry="18"/>
<text text-anchor="middle" x="174" y="-99.8" font-family="Times,serif" font-size="14.00">GestaoProdutividadeService</text>
</g>
<!-- GestaoProdutividadeService&#45;&gt;GestaoProdutividadeModule -->
<g id="edge14" class="edge">
<title>GestaoProdutividadeService&#45;&gt;GestaoProdutividadeModule</title>
<path fill="none" stroke="black" d="M245.68,-118.66C245.68,-125.43 245.68,-132 245.68,-132 245.68,-132 487.36,-132 487.36,-132 487.36,-132 487.36,-151.85 487.36,-151.85"/>
<polygon fill="black" stroke="black" points="483.86,-151.85 487.36,-161.85 490.86,-151.85 483.86,-151.85"/>
</g>
<!-- RedisService -->
<g id="node16" class="node">
<title>RedisService</title>
<ellipse fill="#fdb462" stroke="black" cx="1626" cy="-256" rx="61.97" ry="18"/>
<text text-anchor="middle" x="1626" y="-251.8" font-family="Times,serif" font-size="14.00">RedisService</text>
</g>
<!-- RedisService&#45;&gt;RedisModule -->
<g id="edge16" class="edge">
<title>RedisService&#45;&gt;RedisModule</title>
<path fill="none" stroke="black" d="M1626,-237.97C1626,-217.23 1626,-186 1626,-186 1626,-186 1146.16,-186 1146.16,-186"/>
<polygon fill="black" stroke="black" points="1146.16,-182.5 1136.16,-186 1146.16,-189.5 1146.16,-182.5"/>
</g>
<!-- TransporteService -->
<g id="node17" class="node">
<title>TransporteService</title>
<ellipse fill="#fdb462" stroke="black" cx="679" cy="-104" rx="81.64" ry="18"/>
<text text-anchor="middle" x="679" y="-99.8" font-family="Times,serif" font-size="14.00">TransporteService</text>
</g>
<!-- TransporteService&#45;&gt;TransporteModule -->
<g id="edge17" class="edge">
<title>TransporteService&#45;&gt;TransporteModule</title>
<path fill="none" stroke="black" d="M704.36,-121.25C704.36,-121.25 704.36,-151.76 704.36,-151.76"/>
<polygon fill="black" stroke="black" points="700.86,-151.76 704.36,-161.76 707.86,-151.76 700.86,-151.76"/>
</g>
<!-- AddNewUser -->
<g id="node18" class="node">
<title>AddNewUser</title>
<ellipse fill="#fdb462" stroke="black" cx="1155" cy="-104" rx="64.25" ry="18"/>
<text text-anchor="middle" x="1155" y="-99.8" font-family="Times,serif" font-size="14.00">AddNewUser</text>
</g>
<!-- AddNewUser&#45;&gt;UserModule -->
<g id="edge18" class="edge">
<title>AddNewUser&#45;&gt;UserModule</title>
<path fill="none" stroke="black" d="M1113.3,-117.88C1113.3,-132.06 1113.3,-152 1113.3,-152 1113.3,-152 854.19,-152 854.19,-152 854.19,-152 854.19,-152.98 854.19,-152.98"/>
<polygon fill="black" stroke="black" points="850.69,-151.79 854.19,-161.79 857.69,-151.79 850.69,-151.79"/>
</g>
<!-- AddUserBatch -->
<g id="node19" class="node">
<title>AddUserBatch</title>
<ellipse fill="#fdb462" stroke="black" cx="1004" cy="-104" rx="68.34" ry="18"/>
<text text-anchor="middle" x="1004" y="-99.8" font-family="Times,serif" font-size="14.00">AddUserBatch</text>
</g>
<!-- AddUserBatch&#45;&gt;UserModule -->
<g id="edge19" class="edge">
<title>AddUserBatch&#45;&gt;UserModule</title>
<path fill="none" stroke="black" d="M980.73,-121.22C980.73,-131.28 980.73,-142 980.73,-142 980.73,-142 836.38,-142 836.38,-142 836.38,-142 836.38,-151.89 836.38,-151.89"/>
<polygon fill="black" stroke="black" points="832.88,-151.89 836.38,-161.89 839.88,-151.89 832.88,-151.89"/>
</g>
<!-- UserService -->
<g id="node20" class="node">
<title>UserService</title>
<ellipse fill="#fdb462" stroke="black" cx="859" cy="-104" rx="58.44" ry="18"/>
<text text-anchor="middle" x="859" y="-99.8" font-family="Times,serif" font-size="14.00">UserService</text>
</g>
<!-- UserService&#45;&gt;UserModule -->
<g id="edge20" class="edge">
<title>UserService&#45;&gt;UserModule</title>
<path fill="none" stroke="black" d="M818.58,-117.24C818.58,-117.24 818.58,-151.79 818.58,-151.79"/>
<polygon fill="black" stroke="black" points="815.08,-151.79 818.58,-161.79 822.08,-151.79 815.08,-151.79"/>
</g>
</g>
</svg>
